<?xml version="1.0" encoding="UTF-8" standalone="no"?>
<!DOCTYPE svg PUBLIC "-//W3C//DTD SVG 1.1//EN" "http://www.w3.org/Graphics/SVG/1.1/DTD/svg11.dtd">
<svg width="100%" height="100%" viewBox="0 0 1920 1920" version="1.1" xmlns="http://www.w3.org/2000/svg" xmlns:xlink="http://www.w3.org/1999/xlink" xml:space="preserve" xmlns:serif="http://www.serif.com/" style="fill-rule:evenodd;clip-rule:evenodd;stroke-linejoin:round;stroke-miterlimit:2;">
    <g transform="matrix(2.66667,0,0,2.66667,-780,-106.667)">
        <path d="M400,100L500,300L700,300L600,100L400,100Z" style="fill:url(#_Linear1);"/>
    </g>
    <g transform="matrix(2.66667,0,0,2.66667,-780,-106.667)">
        <path d="M600,500L800,500L900,700L700,700L600,500Z" style="fill:url(#_Linear2);"/>
    </g>
    <g transform="matrix(2.66667,0,0,2.66667,-780,-106.667)">
        <path d="M500,300L700,700L500,700L300,300L500,300Z" style="fill:rgb(62,163,255);"/>
    </g>
    <g transform="matrix(2.66667,0,0,2.66667,-780,-106.667)">
        <path d="M600,100L800,100L1000,500L900,700L600,100Z" style="fill:rgb(62,163,255);"/>
    </g>
    <defs>
        <linearGradient id="_Linear1" x1="0" y1="0" x2="1" y2="0" gradientUnits="userSpaceOnUse" gradientTransform="matrix(178.75,-88.75,59.1667,119.167,457.5,220)"><stop offset="0" style="stop-color:rgb(46,70,149);stop-opacity:1"/><stop offset="0.65" style="stop-color:rgb(39,60,132);stop-opacity:1"/><stop offset="0.84" style="stop-color:rgb(21,33,86);stop-opacity:1"/><stop offset="1" style="stop-color:rgb(0,0,30);stop-opacity:1"/></linearGradient>
        <linearGradient id="_Linear2" x1="0" y1="0" x2="1" y2="0" gradientUnits="userSpaceOnUse" gradientTransform="matrix(195,-97.5,65,130,641.25,628.75)"><stop offset="0" style="stop-color:rgb(0,0,30);stop-opacity:1"/><stop offset="0.08" style="stop-color:rgb(21,31,84);stop-opacity:1"/><stop offset="0.17" style="stop-color:rgb(39,59,131);stop-opacity:1"/><stop offset="0.46" style="stop-color:rgb(46,70,149);stop-opacity:1"/><stop offset="0.8" style="stop-color:rgb(39,59,130);stop-opacity:1"/><stop offset="0.9" style="stop-color:rgb(20,31,82);stop-opacity:1"/><stop offset="1" style="stop-color:rgb(0,0,30);stop-opacity:1"/></linearGradient>
    </defs>
</svg>
